# xmcd CD database file
#
# Track frame offsets:
#	187
#	18112
#	35212
#	55355
#	70147
#	88390
#	107842
#	128305
#	147662
#	172057
#	191500
#	212695
#	242237
#	263375
#
# Disc length: 3803 seconds
#
# Revision: 7
# Processed by: cddbd v1.5.2PL0 Copyright (c) Steve Scherf et al.
# Submitted via: CDex 1.70beta3
#
DISCID=cc0ed90e
DTITLE=未知 - 未知
DYEAR=0
DGENRE=Blues
TTITLE0=トラック 1
TTITLE1=トラック 2
TTITLE2=トラック 3
TTITLE3=トラック 4
TTITLE4=トラック 5
TTITLE5=トラック 6
TTITLE6=トラック 7
TTITLE7=トラック 8
TTITLE8=トラック 9
TTITLE9=トラック 10
TTITLE10=トラック 11
TTITLE11=トラック 12
TTITLE12=トラック 13
TTITLE13=トラック 14
EXTD=YEAR: 0
EXTT0=
EXTT1=
EXTT2=
EXTT3=
EXTT4=
EXTT5=
EXTT6=
EXTT7=
EXTT8=
EXTT9=
EXTT10=
EXTT11=
EXTT12=
EXTT13=
PLAYORDER=
